<?xml version="1.0" standalone="no"?>
<!DOCTYPE svg PUBLIC "-//W3C//DTD SVG 20010904//EN"
 "http://www.w3.org/TR/2001/REC-SVG-20010904/DTD/svg10.dtd">
<svg version="1.0" xmlns="http://www.w3.org/2000/svg"
 width="1024.000000pt" height="1024.000000pt" viewBox="0 0 1024.000000 1024.000000"
 preserveAspectRatio="xMidYMid meet">

<g transform="translate(0.000000,1024.000000) scale(0.100000,-0.100000)"
fill="#000000" stroke="none">
<path d="M0 5120 l0 -5120 5120 0 5120 0 0 5120 0 5120 -5120 0 -5120 0 0
-5120z m3020 3257 c25 -22 56 -49 70 -61 37 -32 261 -221 349 -294 105 -87
214 -179 276 -232 58 -50 78 -67 150 -125 27 -22 56 -47 65 -55 9 -8 83 -71
165 -140 82 -69 170 -143 196 -165 25 -22 79 -67 119 -100 70 -59 117 -99 235
-200 32 -27 65 -54 73 -59 8 -4 22 -16 31 -25 9 -9 39 -34 66 -56 28 -22 52
-43 55 -46 5 -6 129 -111 303 -256 42 -36 77 -70 77 -77 0 -6 -17 -32 -37 -57
-21 -26 -74 -92 -117 -148 -44 -55 -82 -101 -86 -101 -4 0 -18 10 -32 23 -13
12 -47 41 -74 62 -27 22 -51 42 -54 45 -3 3 -34 30 -70 60 -36 30 -67 57 -70
60 -9 9 -362 304 -394 329 -17 14 -49 41 -72 60 -22 20 -51 45 -65 56 -49 41
-347 292 -433 365 -49 41 -103 86 -120 99 -17 14 -49 41 -72 60 -97 85 -159
137 -179 151 -12 8 -37 30 -56 47 -19 18 -40 33 -46 33 -10 0 -13 -311 -13
-1520 l0 -1520 -195 0 -195 0 0 1956 0 1956 53 -43 c28 -24 72 -61 97 -82z
m4350 -1837 l0 -1950 -195 0 -195 0 0 1366 c0 1054 -3 1365 -12 1362 -10 -4
-116 -139 -240 -308 -18 -24 -38 -51 -45 -60 -7 -8 -93 -123 -192 -255 -99
-132 -184 -244 -189 -250 -4 -5 -35 -46 -67 -90 -33 -44 -62 -82 -65 -85 -3
-3 -23 -30 -46 -60 -23 -30 -88 -117 -145 -194 -57 -76 -111 -148 -119 -160
-19 -28 -73 -99 -80 -106 -5 -5 -151 -199 -505 -670 -76 -102 -140 -186 -141
-188 -1 -2 -15 7 -31 21 -75 65 -136 117 -203 172 -40 33 -97 80 -126 105 -69
60 -98 84 -153 128 -25 20 -48 39 -51 43 -10 10 -373 314 -399 333 -14 11 -47
38 -72 60 -53 46 -82 71 -148 124 -25 20 -48 39 -51 42 -3 3 -38 34 -77 69
l-73 63 0 249 c0 137 4 249 9 249 9 0 52 -32 86 -63 28 -27 242 -207 279 -236
17 -14 52 -43 77 -65 26 -23 77 -66 114 -96 37 -30 75 -62 84 -70 9 -8 39 -33
66 -55 27 -22 67 -55 87 -74 21 -19 48 -41 60 -49 13 -8 28 -20 33 -26 6 -6
33 -29 60 -51 28 -22 55 -45 60 -51 6 -6 65 -57 132 -113 67 -56 125 -106 128
-112 15 -23 45 -4 92 59 28 37 101 132 162 212 232 302 316 413 331 434 8 11
42 56 75 98 64 83 86 112 239 313 55 71 127 166 161 210 33 44 105 139 160
210 54 72 110 144 124 162 14 18 40 50 56 73 17 22 35 46 40 53 6 6 24 30 40
52 16 22 42 56 58 75 15 19 31 40 35 45 4 6 28 37 53 70 145 190 378 495 419
551 58 78 294 384 297 384 2 0 3 -877 3 -1950z m-4690 -2917 l0 -286 60 57
c38 36 87 70 137 93 68 33 89 38 169 41 111 5 186 -13 261 -64 83 -57 140
-148 169 -271 23 -97 15 -315 -15 -397 -57 -160 -158 -247 -321 -276 -167 -30
-343 32 -429 151 -33 45 -35 43 -46 -51 -10 -88 -12 -90 -56 -90 l-39 0 0 683
c0 376 3 687 7 690 3 4 28 7 55 7 l48 0 0 -287z m4960 -403 l0 -690 -39 0 -38
0 -12 88 -12 88 -72 -71 c-54 -54 -86 -77 -128 -93 -172 -64 -385 -21 -493 98
-78 88 -112 182 -122 340 -14 234 83 430 255 512 56 27 81 33 157 36 149 7
252 -33 352 -136 l52 -55 0 287 0 286 50 0 50 0 0 -690z m-3260 282 c117 -46
208 -145 251 -272 14 -44 23 -100 26 -175 15 -303 -133 -503 -395 -535 -202
-24 -374 40 -466 172 -93 136 -119 347 -64 528 45 148 152 254 298 296 72 21
281 12 350 -14z m1108 -6 c70 -32 123 -85 156 -155 20 -44 21 -62 24 -428 l3
-383 -39 0 -40 0 -6 58 c-4 31 -10 71 -13 89 l-5 32 -55 -59 c-68 -74 -149
-115 -255 -132 -228 -35 -401 73 -416 257 -9 120 43 222 142 280 79 46 146 57
375 62 l214 5 -6 79 c-10 129 -41 181 -129 219 -99 42 -265 36 -412 -15 -39
-14 -74 -21 -78 -17 -3 4 -10 19 -13 35 -7 25 -4 29 39 48 103 45 183 59 321
56 118 -3 136 -6 193 -31z m1088 16 c21 -11 21 -14 9 -54 -14 -46 -13 -46 -85
-28 -116 29 -252 -37 -341 -167 l-29 -42 0 -345 0 -346 -55 0 -55 0 0 495 0
495 39 0 c44 0 46 -3 57 -112 4 -38 10 -68 13 -68 3 0 20 19 36 41 37 50 110
105 173 130 36 15 66 19 132 16 47 -2 95 -8 106 -15z m-101 -1446 c41 -12 58
-44 20 -38 -68 12 -158 13 -189 2 -135 -44 -160 -296 -37 -377 24 -16 49 -23
84 -23 89 0 147 58 147 149 l0 41 -55 0 c-42 0 -55 3 -55 15 0 12 15 15 75 15
l75 0 0 -125 c0 -105 -2 -125 -15 -125 -9 0 -18 12 -21 30 l-6 30 -34 -30
c-84 -74 -233 -40 -288 65 -17 32 -21 58 -21 135 0 86 3 100 28 143 15 26 39
54 53 63 64 43 159 54 239 30z m-2613 -158 c45 -90 84 -169 86 -175 2 -7 7
-13 10 -13 4 1 46 78 94 173 75 150 90 172 112 175 l26 3 0 -235 c0 -229 -1
-236 -20 -236 -19 0 -20 7 -20 201 l0 201 -51 -98 c-101 -195 -119 -224 -139
-224 -21 0 -35 21 -129 203 l-61 118 0 -200 c0 -194 -1 -201 -20 -201 -19 0
-20 7 -20 235 l0 235 24 0 c21 0 35 -20 108 -162z m758 147 c0 -13 -22 -15
-135 -15 l-135 0 0 -90 0 -90 125 0 c118 0 125 -1 125 -20 0 -19 -7 -20 -125
-20 l-125 0 0 -95 0 -95 135 0 c113 0 135 -2 135 -15 0 -13 -24 -15 -155 -15
l-155 0 0 235 0 235 155 0 c131 0 155 -2 155 -15z m400 0 c0 -13 -21 -15 -130
-15 l-130 0 0 -90 0 -90 126 0 c114 0 125 -2 122 -17 -3 -16 -18 -18 -126 -21
l-122 -3 0 -94 0 -95 135 0 c113 0 135 -2 135 -15 0 -13 -24 -15 -155 -15
l-155 0 0 235 0 235 150 0 c127 0 150 -2 150 -15z m410 0 c0 -12 -16 -15 -80
-15 l-80 0 0 -220 c0 -213 -1 -220 -20 -220 -19 0 -20 7 -20 220 l0 220 -80 0
c-64 0 -80 3 -80 15 0 13 27 15 180 15 153 0 180 -2 180 -15z m120 -220 c0
-228 -1 -235 -20 -235 -19 0 -20 7 -20 235 0 228 1 235 20 235 19 0 20 -7 20
-235z m315 30 l140 -204 3 204 c2 197 3 205 22 205 19 0 20 -7 20 -235 l0
-235 -24 0 c-20 0 -47 35 -162 202 l-139 202 -3 -202 c-2 -194 -3 -202 -22
-202 -19 0 -20 7 -20 235 l0 235 23 0 c17 0 50 -42 162 -205z"/>
<path d="M2934 3422 c-73 -26 -147 -76 -205 -141 l-50 -56 3 -180 3 -180 33
-67 c78 -159 254 -233 429 -180 91 28 143 73 188 165 48 98 63 205 46 330 -20
155 -75 247 -174 297 -52 26 -71 30 -141 30 -51 -1 -100 -7 -132 -18z"/>
<path d="M7053 3423 c-60 -21 -139 -95 -172 -162 -37 -72 -51 -142 -51 -244 0
-197 84 -346 223 -394 81 -28 207 -24 277 8 104 49 177 147 200 269 5 29 10
112 10 185 l0 133 -40 51 c-54 68 -128 125 -195 150 -67 25 -188 27 -252 4z"/>
<path d="M4077 3440 c-172 -44 -267 -190 -267 -415 0 -194 74 -337 205 -397
43 -20 66 -23 166 -23 113 0 118 1 185 35 78 40 121 89 153 175 44 117 44 304
-1 422 -27 74 -101 153 -171 183 -59 26 -204 36 -270 20z"/>
<path d="M5240 3034 c-175 -13 -264 -66 -290 -174 -24 -99 12 -189 93 -232 36
-20 57 -23 147 -23 97 0 110 2 172 32 81 38 142 97 176 172 22 46 26 71 27
141 l0 85 -140 1 c-77 0 -160 -1 -185 -2z"/>
</g>
</svg>
